<?xml version="1.0" encoding="UTF-8"?> <svg xmlns="http://www.w3.org/2000/svg" xmlns:xlink="http://www.w3.org/1999/xlink" id="Layer_2" viewBox="0 0 641.41 88.82"><defs><symbol id="New_Symbol_17" viewBox="0 0 859.1 118.97"><rect x="0" width="22.62" height="115.98" style="fill:#47464a;"></rect><path d="M133.66,0h-68.14v115.96h68.14c16.01,0,30.51-6.5,40.98-16.99,10.51-10.49,16.99-24.99,16.99-41C191.64,25.96,165.69,0,133.66,0ZM167.46,62.93c0,22.83-18.52,41.35-41.35,41.35h-38.99V11.7h38.99c22.83,0,41.35,18.52,41.35,41.35v9.88Z" style="fill:#47464a;"></path><path d="M328.84,72.46c0,18.72-15.18,33.89-33.87,33.89h-9.27c-18.72,0-33.89-15.18-33.89-33.89V0h-24.83v68.56c0,27.82,22.57,50.39,50.39,50.39h14.95c27.82,0,50.39-22.57,50.39-50.39V0h-13.87v72.45Z" style="fill:#47464a;"></path><polygon points="483.66 82.95 398.89 0 383.55 0 383.55 115.98 398.89 115.98 398.89 29.9 483.66 115.98 499.01 115.98 499.01 0 483.66 0 483.66 82.95" style="fill:#47464a;"></polygon><path d="M698.77,63.64c6.74-6.76,10.92-16.07,10.92-26.36C709.69,16.69,693.01,0,672.41,0h-70.44v115.96h21.49v-41.41h32.37l34.61,41.41h26.46l-37.66-42.04c7.56-1.39,14.32-5.07,19.53-10.29ZM660.01,63.64h-36.54V10.93h36.54c14.56,0,26.36,11.79,26.36,26.36,0,7.27-2.95,13.85-7.72,18.64-4.77,4.77-11.35,7.72-18.64,7.72Z" style="fill:#c8ad68;"></path><polygon points="859.1 115.98 808.16 55.67 855.44 0 836 0 798.57 44.32 761.13 0 733.78 0 785.03 60.34 738.03 115.98 756.93 115.98 794.61 71.62 832.29 115.98 859.1 115.98" style="fill:#c8ad68;"></polygon></symbol></defs><g id="LOGO"><use width="859.1" height="118.97" transform="scale(.75)" xlink:href="#New_Symbol_17"></use></g></svg> 