<svg width="142" height="36" viewBox="0 0 142 36" fill="none" xmlns="http://www.w3.org/2000/svg">
<g clip-path="url(#clip0_3158_724)">
<path fill-rule="evenodd" clip-rule="evenodd" d="M45.782 18.638H48.2166L51.7425 24.8505H55.3944L51.3368 18.1063C51.3368 18.1063 55.0027 16.889 55.0027 13.0972C55.0027 10.2569 52.5681 7.82227 49.3079 7.82227H42.5358V24.8365H45.796L45.782 18.638ZM49.3079 15.5318H45.782L45.796 10.9425H49.3219C50.6232 10.9285 51.7145 11.9359 51.7565 13.2371C51.7006 14.5384 50.6092 15.5458 49.3079 15.5318Z" fill="#39345C"/>
<path fill-rule="evenodd" clip-rule="evenodd" d="M71.6808 12.4254H72.3524H74.661V24.0527C74.661 27.2988 72.4923 29.4536 68.7005 29.4536C66.126 29.5515 63.8313 27.8725 63.1457 25.3959H66.2659C66.2659 25.3959 66.8116 26.6132 68.7005 26.6132C70.4635 26.6132 71.5408 25.5358 71.5408 24.0387V23.0873C70.6733 23.9408 69.512 24.4305 68.2807 24.4445C65.1605 24.4445 62.586 21.87 62.586 18.358C62.586 14.846 65.1605 12.2715 68.2807 12.2715C69.526 12.2715 70.7153 12.7192 71.6668 13.5028V12.4254H71.6808ZM66.5597 20.5407C67.1194 21.1284 67.8889 21.4642 68.7005 21.4782C69.512 21.4642 70.2816 21.1284 70.8412 20.5407C71.4009 19.9531 71.7087 19.1835 71.6808 18.372C71.7367 17.2666 71.1771 16.2312 70.2396 15.6715C69.2881 15.1118 68.1128 15.1118 67.1614 15.6715C66.2099 16.2312 65.6642 17.2806 65.7202 18.372C65.6922 19.1835 66 19.9531 66.5597 20.5407Z" fill="#39345C"/>
<path d="M88.5975 17.5468V24.8366H85.4773V17.9526C85.4773 16.3295 84.3859 15.2381 82.9028 15.2381C81.4057 15.2381 80.3283 16.3155 80.3283 17.9526V24.8366H77.2081V9.01172H80.3283V13.6291C80.3283 13.6291 81.4057 12.2718 83.8542 12.2718C86.5547 12.2858 88.5975 14.3147 88.5975 17.5468Z" fill="#39345C"/>
<path d="M96.7126 15.2518V12.4255H93.9842V8.25586L90.864 9.45917V20.5408C90.864 23.2552 92.6269 25.0042 95.0755 25.0042C95.5792 25.0042 96.083 24.9063 96.5727 24.7384V22.0239C96.3208 22.1219 96.041 22.1778 95.7611 22.1639C95.2854 22.2058 94.8097 22.0239 94.4739 21.6881C94.1381 21.3523 93.9562 20.8766 93.9981 20.4009V15.2798H96.7126V15.2518Z" fill="#39345C"/>
<path d="M57.1156 9.05307C57.1716 8.1296 57.9411 7.41602 58.8646 7.41602C59.7881 7.41602 60.5576 8.1296 60.6136 9.05307C60.6556 9.71069 60.3337 10.3263 59.7741 10.6621C59.2144 10.998 58.5148 10.998 57.9551 10.6621C57.3954 10.3263 57.0736 9.71069 57.1156 9.05307Z" fill="#39345C"/>
<path d="M60.4317 12.4121H57.3115V24.8509H60.4317V12.4121Z" fill="#39345C"/>
<path d="M105.29 24.6978H102.996L97.5947 7.68359H100.841L104.213 18.7652L107.725 7.68359H109.614L113.126 18.7652L116.498 7.68359H119.744L114.343 24.6978H112.048L108.676 14.0219L105.29 24.6978Z" fill="#39345C"/>
<path d="M130.504 20.9198C129.832 22.8087 127.803 24.8375 124.963 24.8375C121.591 24.8375 118.75 21.9971 118.75 18.4852C118.75 14.9732 121.591 12.1328 124.963 12.1328C128.209 12.1328 130.909 14.6933 130.909 18.4852C130.909 19.0308 130.77 19.7025 130.77 19.7025H122.123C122.388 20.9198 123.34 21.8572 124.963 21.8572C126.586 21.8572 127.258 20.9058 127.258 20.9058H130.504V20.9198ZM121.997 17.5337H127.943C127.677 16.1765 126.586 15.0991 124.977 15.0991C123.354 15.1131 122.262 16.1905 121.997 17.5337Z" fill="#39345C"/>
<path d="M136.325 24.7253H133.218V8.90039H136.339L136.325 24.7253Z" fill="#39345C"/>
<path d="M141.739 24.7253H138.619V8.90039H141.739V24.7253Z" fill="#39345C"/>
</g>
<circle cx="17.7136" cy="17.625" r="17.5" fill="#959CFF"/>
<path d="M24.946 19.1039C24.5002 19.9139 23.7208 20.5238 22.7563 20.8177C21.789 21.114 20.7516 21.0597 19.8319 20.6671C17.9337 19.8571 17.1375 17.8346 18.0571 16.1627C18.43 15.4886 18.1076 14.6761 17.3421 14.3477C16.5767 14.0192 15.6542 14.3032 15.2813 14.9774C14.4767 16.4418 14.3645 18.0939 14.9701 19.6299C15.0262 19.7731 15.0879 19.9163 15.158 20.0546C15.8141 21.3931 16.9804 22.4698 18.4861 23.1143C19.4394 23.5218 20.4656 23.7267 21.4974 23.7267C22.26 23.7267 23.0254 23.6131 23.7684 23.3884C25.5124 22.855 26.9171 21.7561 27.7218 20.2917L24.946 19.1039Z" fill="white"/>
<path d="M20.5728 15.5633C20.5728 16.0896 20.4399 16.5957 20.1742 17.0613C19.7869 17.747 20.0922 18.5846 20.8583 18.9312C21.0844 19.0324 21.3219 19.0805 21.5593 19.0805C22.1275 19.0805 22.6731 18.8022 22.9473 18.3163C23.2469 17.7875 23.4589 17.2156 23.5748 16.6286C23.6455 16.2769 23.6794 15.9201 23.6794 15.5608C23.6794 13.9313 22.9699 12.3979 21.6809 11.244C20.3918 10.0902 18.6816 9.45508 16.8583 9.45508C15.0351 9.45508 13.3249 10.0902 12.0358 11.244C10.7468 12.3979 10.0373 13.9287 10.0373 15.5608V23.7288H13.1468V15.5633C13.1468 13.7314 14.8117 12.2435 16.8555 12.2435C18.9078 12.2435 20.5728 13.7314 20.5728 15.5633Z" fill="white"/>
<defs>
<clipPath id="clip0_3158_724">
<rect width="99.2029" height="22.0373" fill="white" transform="translate(42.5378 7.42188)"/>
</clipPath>
</defs>
</svg>
