<?xml version="1.0" encoding="UTF-8"?> <svg xmlns="http://www.w3.org/2000/svg" width="12179" height="2003" viewBox="0 0 12179 2003" fill="none"><path d="M1894.18 283.417C1830.57 295.76 1780.24 308.103 1743.22 320.446C1706.19 331.839 1682.92 350.829 1673.43 377.414L1142.2 1832.94C1132.71 1861.43 1110.87 1887.06 1076.69 1909.85C1042.51 1931.69 1004.06 1950.2 961.332 1965.39C918.606 1981.53 879.203 1993.88 843.124 2002.42L187.994 377.414C178.499 352.728 159.51 332.789 131.026 317.597C103.491 302.406 59.816 291.012 -0.000228643 283.417V165.208H761.945V283.417C686.937 289.114 637.565 299.083 613.828 313.325C590.092 326.617 583.445 347.031 593.889 374.565L1042.51 1513.92L1446.98 377.414C1457.43 349.879 1450.31 329.94 1425.62 317.597C1401.88 304.305 1351.09 292.911 1273.23 283.417V165.208H1894.18V283.417ZM2608.1 163.784C2608.1 231.196 2582.94 285.316 2532.62 326.143C2483.25 366.97 2420.58 387.383 2344.62 387.383C2288.61 387.383 2237.81 374.565 2192.24 348.93C2146.66 322.345 2123.87 280.094 2123.87 222.176C2123.87 153.815 2149.51 99.6955 2200.78 59.818C2252.05 19.9405 2314.24 0.00177383 2387.35 0.00177383C2442.42 0.00177383 2492.74 12.8195 2538.32 38.4551C2584.84 63.1411 2608.1 104.918 2608.1 163.784ZM1981.45 1959.7V1841.49C2046.02 1828.19 2093.02 1813.48 2122.45 1797.34C2151.88 1781.2 2166.6 1766.95 2166.6 1754.61V1048.21C2166.6 982.697 2163.75 933.8 2158.06 901.518C2153.31 869.236 2138.12 846.924 2112.48 834.581C2086.85 821.288 2043.17 811.793 1981.45 806.097V692.161C2069.76 680.767 2151.88 667.475 2227.84 652.283C2303.8 636.143 2376.43 616.204 2445.74 592.467H2551.13V1754.61C2551.13 1766 2564.43 1780.25 2591.01 1797.34C2618.55 1813.48 2666.97 1828.19 2736.28 1841.49V1959.7H1981.45ZM3834.73 1721.85C3698.96 1819.65 3586.45 1890.86 3497.2 1935.48C3408.9 1980.11 3339.59 2002.42 3289.27 2002.42C3202.86 2002.42 3128.33 1968.72 3065.67 1901.3C3003 1833.89 2971.67 1734.2 2971.67 1602.22V827.46H2802.19L2758.04 773.34L2869.13 635.193H2971.67V356.051L3297.81 122.483L3356.2 172.329V635.193H3779.19L3834.73 690.737C3816.69 723.968 3792.96 759.573 3763.52 797.551C3734.09 834.581 3709.88 861.166 3690.89 877.306C3668.1 865.913 3633.92 854.994 3588.35 844.55C3543.72 833.156 3500.52 827.46 3458.74 827.46H3356.2V1465.5C3356.2 1557.6 3367.12 1622.64 3388.96 1660.61C3411.75 1698.59 3437.38 1717.58 3465.87 1717.58C3499.1 1717.58 3537.08 1710.46 3579.8 1696.22C3622.53 1681.03 3684.24 1651.12 3764.95 1606.49L3834.73 1721.85ZM5309.17 1785.94C5256 1822.97 5198.09 1858.1 5135.42 1891.33C5073.71 1923.62 5016.74 1950.2 4964.52 1971.09C4912.3 1991.98 4873.37 2002.42 4847.73 2002.42C4806.91 2002.42 4773.2 1977.74 4746.62 1928.36C4720.03 1878.04 4706.74 1810.63 4706.74 1726.13V988.394C4706.74 931.426 4694.87 884.427 4671.13 847.398C4647.4 810.369 4603.25 791.855 4538.68 791.855C4498.81 791.855 4460.35 807.521 4423.32 838.853C4387.24 870.185 4372.05 914.336 4377.75 971.303C4378.7 979.849 4360.66 991.717 4323.63 1006.91C4286.6 1022.1 4241.98 1036.82 4189.76 1051.06C4138.49 1065.3 4091.01 1077.17 4047.34 1086.66C4003.66 1095.21 3976.13 1098.06 3964.73 1095.21L3930.55 1011.18C3961.88 931.426 4016 860.216 4092.91 797.551C4170.77 733.937 4261.92 684.091 4366.36 648.011C4471.75 610.982 4580.94 592.467 4693.92 592.467C4833.49 592.467 4934.61 627.123 4997.28 696.434C5059.94 764.795 5091.27 847.873 5091.27 945.668V1592.25C5091.27 1666.31 5110.26 1703.34 5148.24 1703.34C5161.53 1703.34 5176.25 1700.97 5192.39 1696.22C5208.53 1690.52 5235.59 1680.08 5273.57 1664.89L5309.17 1785.94ZM4720.98 1293.17C4616.54 1310.26 4541.53 1326.88 4495.96 1343.02C4450.38 1358.21 4415.73 1377.67 4391.99 1401.41C4367.31 1426.1 4347.37 1451.73 4332.18 1478.32C4316.98 1504.9 4309.39 1537.66 4309.39 1576.59C4309.39 1637.35 4324.11 1678.65 4353.54 1700.49C4382.97 1721.38 4410.03 1731.82 4434.72 1731.82C4465.1 1731.82 4501.66 1723.28 4544.38 1706.19C4587.11 1689.1 4645.97 1647.32 4720.98 1580.86L4732.37 1757.46C4643.13 1853.36 4554.35 1918.39 4466.05 1952.57C4377.75 1985.81 4301.32 2002.42 4236.75 2002.42C4181.69 2002.42 4128.52 1989.6 4077.24 1963.97C4026.92 1939.28 3985.62 1901.78 3953.34 1851.46C3921.06 1801.13 3904.92 1739.42 3904.92 1666.31C3904.92 1604.6 3916.31 1551.9 3939.1 1508.23C3961.88 1463.6 3990.84 1423.72 4025.97 1388.59C4057.31 1357.26 4096.23 1327.83 4142.76 1300.29C4189.28 1271.81 4257.64 1244.75 4347.84 1219.11C4438.04 1192.53 4562.42 1167.37 4720.98 1143.63V1293.17ZM6567.14 659.404C6575.68 665.101 6577.58 690.262 6572.83 734.887C6568.09 778.562 6559.07 830.308 6545.77 890.124C6533.43 949.94 6519.19 1007.38 6503.05 1062.45C6487.86 1116.57 6474.57 1156.45 6463.17 1182.08H6344.96C6341.17 1105.18 6326.45 1035.39 6300.81 972.728C6275.18 909.113 6237.2 877.306 6186.88 877.306C6164.09 877.306 6138.45 881.579 6109.97 890.124C6081.49 897.72 6050.15 917.659 6015.97 949.94C5981.79 982.222 5944.76 1035.87 5904.89 1110.87V1754.61C5904.89 1768.85 5924.83 1783.57 5964.7 1798.76C6005.53 1813.95 6070.57 1828.19 6159.82 1841.49V1959.7H5335.21V1841.49C5458.64 1813 5520.35 1784.04 5520.35 1754.61V1025.42C5520.35 962.758 5517.03 919.083 5510.38 894.397C5503.74 869.711 5496.14 853.095 5487.6 844.55C5475.25 831.257 5460.06 822.238 5442.02 817.49C5423.98 812.743 5388.38 808.945 5335.21 806.097V692.161C5414.01 681.717 5478.1 672.222 5527.47 663.677C5576.85 655.132 5622.9 645.637 5665.62 635.193C5708.35 623.8 5759.62 609.558 5819.44 592.467L5883.52 656.556L5902.04 823.187C5953.31 760.522 6017.87 706.403 6095.73 660.829C6173.59 615.254 6253.34 592.467 6334.99 592.467C6372.97 592.467 6412.38 598.639 6453.2 610.982C6494.98 623.325 6532.96 639.466 6567.14 659.404ZM8030.19 1785.94C7977.02 1822.97 7919.1 1858.1 7856.43 1891.33C7794.72 1923.62 7737.75 1950.2 7685.53 1971.09C7633.31 1991.98 7594.38 2002.42 7568.75 2002.42C7527.92 2002.42 7494.21 1977.74 7467.63 1928.36C7441.04 1878.04 7427.75 1810.63 7427.75 1726.13V988.394C7427.75 931.426 7415.88 884.427 7392.15 847.398C7368.41 810.369 7324.26 791.855 7259.7 791.855C7219.82 791.855 7181.37 807.521 7144.34 838.853C7108.26 870.185 7093.07 914.336 7098.76 971.303C7099.71 979.849 7081.67 991.717 7044.64 1006.91C7007.61 1022.1 6962.99 1036.82 6910.77 1051.06C6859.5 1065.3 6812.02 1077.17 6768.35 1086.66C6724.67 1095.21 6697.14 1098.06 6685.75 1095.21L6651.56 1011.18C6682.9 931.426 6737.02 860.216 6813.92 797.551C6891.78 733.937 6982.93 684.091 7087.37 648.011C7192.76 610.982 7301.95 592.467 7414.93 592.467C7554.5 592.467 7655.62 627.123 7718.29 696.434C7780.95 764.795 7812.28 847.873 7812.28 945.668V1592.25C7812.28 1666.31 7831.27 1703.34 7869.25 1703.34C7882.54 1703.34 7897.26 1700.97 7913.4 1696.22C7929.54 1690.52 7956.6 1680.08 7994.58 1664.89L8030.19 1785.94ZM7441.99 1293.17C7337.55 1310.26 7262.54 1326.88 7216.97 1343.02C7171.4 1358.21 7136.74 1377.67 7113 1401.41C7088.32 1426.1 7068.38 1451.73 7053.19 1478.32C7038 1504.9 7030.4 1537.66 7030.4 1576.59C7030.4 1637.35 7045.12 1678.65 7074.55 1700.49C7103.98 1721.38 7131.04 1731.82 7155.73 1731.82C7186.11 1731.82 7222.67 1723.28 7265.39 1706.19C7308.12 1689.1 7366.99 1647.32 7441.99 1580.86L7453.39 1757.46C7364.14 1853.36 7275.36 1918.39 7187.06 1952.57C7098.76 1985.81 7022.33 2002.42 6957.77 2002.42C6902.7 2002.42 6849.53 1989.6 6798.26 1963.97C6747.93 1939.28 6706.63 1901.78 6674.35 1851.46C6642.07 1801.13 6625.93 1739.42 6625.93 1666.31C6625.93 1604.6 6637.32 1551.9 6660.11 1508.23C6682.9 1463.6 6711.86 1423.72 6746.99 1388.59C6778.32 1357.26 6817.25 1327.83 6863.77 1300.29C6910.29 1271.81 6978.65 1244.75 7068.85 1219.11C7159.05 1192.53 7283.43 1167.37 7441.99 1143.63V1293.17ZM10111.7 554.014C10111.7 675.545 10079 779.512 10013.5 865.913C9948.9 952.314 9862.02 1018.78 9752.84 1065.3C9643.65 1110.87 9523.07 1133.66 9391.09 1133.66C9364.51 1133.66 9336.97 1132.24 9308.49 1129.39C9280.95 1125.59 9252.47 1120.37 9223.03 1113.72L9214.49 942.819C9247.72 948.516 9275.26 952.314 9297.09 954.213C9319.88 956.112 9343.14 957.061 9366.88 957.061C9488.41 957.061 9575.29 925.254 9627.51 861.64C9679.73 797.077 9705.84 709.251 9705.84 598.164C9705.84 543.095 9694.92 491.824 9673.08 444.351C9652.19 396.878 9612.79 358.424 9554.87 328.991C9497.9 299.558 9415.3 284.841 9307.06 284.841C9251.99 284.841 9185.06 288.639 9106.25 296.235C9028.39 302.881 8949.11 311.426 8868.41 321.87C8787.71 332.314 8714.6 342.758 8649.08 353.202L8629.15 207.934C8732.64 186.097 8847.52 166.633 8973.8 149.542C9101.03 131.503 9234.43 122.483 9374 122.483C9554.4 122.483 9698.24 141.472 9805.53 179.45C9913.77 217.429 9991.63 269.175 10039.1 334.688C10087.5 399.251 10111.7 472.36 10111.7 554.014ZM10413.7 1878.52C10371.9 1891.81 10321.6 1906.53 10262.7 1922.67C10204.8 1938.81 10149.2 1952.1 10096.1 1962.54C10043.8 1973.94 10005.4 1979.63 9980.71 1979.63C9954.12 1979.63 9927.54 1972.04 9900.95 1956.85C9874.37 1940.71 9854.43 1922.19 9841.14 1901.3L9416.73 1088.09L9650.29 994.091L10170.1 1676.28C10200.5 1716.16 10229 1741.79 10255.6 1753.19C10282.2 1763.63 10327.3 1766 10390.9 1760.31L10413.7 1878.52ZM8649.08 1959.7V1841.49C8713.65 1828.19 8761.6 1813.48 8792.93 1797.34C8825.21 1781.2 8841.35 1766.95 8841.35 1754.61V263.478H9240.13V1754.61C9240.13 1766 9254.84 1780.25 9284.28 1797.34C9313.71 1813.48 9363.08 1828.19 9432.39 1841.49V1959.7H8649.08ZM12108.9 283.417C12039.5 291.012 11984.9 302.881 11945.1 319.022C11906.1 335.163 11873.9 363.172 11848.2 403.049L11294.2 1263.26L11186 1046.79L11593.3 403.049C11620.8 359.374 11627 330.415 11611.8 316.173C11597.6 300.982 11548.2 290.063 11463.7 283.417V165.208H12108.9V283.417ZM11379.7 1959.7V1841.49C11463.2 1832.94 11515.4 1820.6 11536.3 1804.46C11558.2 1787.37 11555.8 1759.83 11529.2 1721.85L10623.4 403.049C10594 361.273 10565 333.264 10536.5 319.022C10509 304.78 10463.9 292.911 10401.2 283.417V165.208H11214.5V283.417C11133.8 291.012 11081.1 302.406 11056.4 317.597C11031.7 332.789 11033.6 361.273 11062.1 403.049L11967.9 1721.85C11995.4 1762.68 12023.4 1791.17 12051.9 1807.31C12081.3 1822.5 12123.6 1833.89 12178.6 1841.49V1959.7H11379.7ZM10901.1 1721.85C10873.6 1762.68 10866 1791.64 10878.3 1808.73C10890.7 1824.87 10940.5 1835.79 11027.9 1841.49V1959.7H10387V1841.49C10511.4 1832.94 10597.8 1793.06 10646.2 1721.85L11205.9 888.7L11298.5 1136.51L10901.1 1721.85Z" fill="white" style="fill:#D7E0D0;fill:color(display-p3 0.8431 0.8784 0.8157);fill-opacity:1;"></path></svg> 